<svg xmlns="http://www.w3.org/2000/svg" viewBox="0 0 427.84202 270.03202" y="0px" x="0px" fill="#7F7F7F"><path d="M120.3 157.7h193.2a29.6 29.6 0 0 0 29.6-29.5v-7a29.6 29.6 0 0 0-29.6-29.5H120.3a29.6 29.6 0 0 0-29.6 29.6v6.9a29.6 29.6 0 0 0 29.6 29.5zm187-59.8a25.6 25.6 0 1 1 0 51.3 25.6 25.6 0 0 1 0-51.3zm-137.7 0h93.1v31.7h-93.1zm-46.7 0a25.6 25.6 0 1 1 0 51.3 25.6 25.6 0 0 1 0-51.3zM55.2 104.9l-1 3.8-1.1 4.1h4.4l-1.3-4.1-1-3.8z"/><path d="M68 98H43v26.7H68V98zm-8.4 23.2l-1.5-5h-5.6l-1.5 5h-4.5l6-19.7h5.8l6.2 19.7z"/><path d="M421 266v-17.6h6.8v-80.8H421V3.9A4 4 0 0 0 417 0H12.2a4 4 0 0 0-3.9 4v163.6H0v80.8h8.3v17.7a4 4 0 0 0 4 4H417a4 4 0 0 0 4-4zM385 25L403 41.3v156.4H31.6V41.4l17-16.5h336.5zM26.3 6a8.5 8.5 0 1 1 0 17 8.5 8.5 0 0 1 0-17zm0 254.3a8.5 8.5 0 1 1 0-17.1 8.5 8.5 0 0 1 0 17zm89 3a11.1 11.1 0 1 1 0-22.1 11.1 11.1 0 0 1 0 22.2zm50.3-15a4 4 0 0 1-4 4h-6.5a4 4 0 0 1-3.9-4V242a4 4 0 0 1 4-4h6.4a4 4 0 0 1 4 4zm51.3-15.6a7.4 7.4 0 1 1 0-14.8 7.4 7.4 0 0 1 0 14.8zm67.6 15.6a4 4 0 0 1-4 4h-6.4a4 4 0 0 1-4-4V242a4 4 0 0 1 4-4h6.5a4 4 0 0 1 4 4zm33.3 15a11 11 0 1 1 0-22 11 11 0 0 1 0 22zm85-1.1a8.5 8.5 0 1 1 0-17 8.5 8.5 0 0 1 0 17zm0-237.3a8.5 8.5 0 1 1 0-17 8.5 8.5 0 0 1 0 17z"/></svg>
