<svg xmlns="http://www.w3.org/2000/svg" width="31" height="32" fill="#7F7F7F"><g><path d="M28.5 11a.5.5 0 0 0 0-1H21V2.5a.5.5 0 0 0-1 0V10h-9V2.5a.5.5 0 0 0-1 0V10H2.5a.5.5 0 0 0 0 1H10v9H2.5a.5.5 0 0 0 0 1H10v8.5a.5.5 0 0 0 1 0V21h9v8.5a.5.5 0 0 0 1 0V21h7.5a.5.5 0 0 0 0-1H21v-9h7.5zM20 20h-9v-9h9v9z"/><path d="M31 30.5v-29c0-.8-.7-1.5-1.5-1.5h-28C.7 0 0 .7 0 1.5v29c0 .8.7 1.5 1.5 1.5h28c.8 0 1.5-.7 1.5-1.5zm-30 0v-29c0-.3.2-.5.5-.5h28c.3 0 .5.2.5.5v29c0 .3-.2.5-.5.5h-28a.5.5 0 0 1-.5-.5z"/></g></svg>
